<?xml version="1.0" standalone="no"?>
<!DOCTYPE svg PUBLIC "-//W3C//DTD SVG 20010904//EN"
 "http://www.w3.org/TR/2001/REC-SVG-20010904/DTD/svg10.dtd">
<svg version="1.0" xmlns="http://www.w3.org/2000/svg"
 width="377.000000pt" height="377.000000pt" viewBox="0 0 377.000000 377.000000"
 preserveAspectRatio="xMidYMid meet">
<metadata>
Created by potrace 1.11, written by Peter Selinger 2001-2013
</metadata>
<g transform="translate(0.000000,377.000000) scale(0.100000,-0.100000)"
fill="#000000" stroke="none">
<path d="M3149 3695 c-1 -94 -34 -235 -85 -373 -139 -373 -382 -657 -646 -754
l-58 -21 0 -161 0 -161 183 -314 182 -313 135 -79 c74 -43 138 -79 141 -79 9
0 115 228 147 320 70 197 124 404 146 555 4 23 8 51 11 64 2 13 7 49 10 80 4
31 9 67 12 81 9 47 12 475 3 545 -5 39 -12 91 -15 117 -2 25 -7 52 -9 60 -3 7
-8 31 -11 53 -13 87 -104 367 -135 415 -7 11 -10 1 -11 -35z"/>
<path d="M2041 2533 c-56 -6 -125 -17 -154 -23 -30 -6 -65 -13 -79 -15 -54
-10 -265 -67 -318 -87 -30 -11 -69 -24 -87 -29 -127 -38 -436 -185 -591 -281
-199 -123 -443 -337 -553 -483 -65 -87 -66 -89 -23 -67 106 54 311 110 474
129 105 12 337 7 436 -11 166 -29 300 -86 419 -176 l67 -51 97 57 c53 31 114
67 135 79 37 21 76 79 198 295 11 19 63 108 114 198 l94 162 0 160 0 160 -64
-2 c-35 -2 -109 -8 -165 -15z"/>
<path d="M2229 1928 c-73 -41 -104 -151 -66 -225 46 -88 161 -116 246 -60 86
57 100 178 29 254 -50 55 -144 69 -209 31z"/>
<path d="M1812 1440 c-74 -43 -135 -80 -137 -82 -2 -2 22 -42 53 -88 169 -253
434 -521 727 -735 335 -244 721 -412 1035 -451 25 -3 58 -7 74 -10 26 -4 24
-1 -24 33 -62 44 -241 217 -292 283 -142 180 -244 381 -290 569 -24 96 -30
298 -11 362 l11 36 -142 82 -141 81 -365 -1 -365 -1 -133 -78z"/>
</g>
</svg>
